HIERARCHY
ROOT Hips
{
	OFFSET 0.000000 0.000000 0.000000
	CHANNELS 6 Xposition Yposition Zposition Xrotation Yrotation Zrotation
	JOINT LeftUpLeg_virtual
	{
		OFFSET 0.000000 0.000000 0.000000
		CHANNELS 3 Xrotation Yrotation Zrotation
		JOINT LeftUpLeg
		{
			OFFSET 15.427100 -6.655098 0.678600
			CHANNELS 3 Xrotation Yrotation Zrotation
			JOINT LeftLeg
			{
				OFFSET 4.081073 -39.591068 13.024000
				CHANNELS 3 Xrotation Yrotation Zrotation
				JOINT LeftFoot
				{
					OFFSET -4.081074 -37.707932 -15.979700
					CHANNELS 3 Xrotation Yrotation Zrotation
					JOINT LeftToeBase
					{
						OFFSET 5.346399 -15.068900 20.645000
						CHANNELS 3 Xrotation Yrotation Zrotation
						JOINT LeftToe_End
						{
							OFFSET 2.754700 0.931300 11.300900
							CHANNELS 3 Xrotation Yrotation Zrotation
							End Site
							{
								OFFSET 0 0 0
							}
						}
					}
				}
			}
		}
	}
	JOINT RightUpLeg_virtual
	{
		OFFSET 0.000000 0.000000 0.000000
		CHANNELS 3 Xrotation Yrotation Zrotation
		JOINT RightUpLeg
		{
			OFFSET -15.569500 -6.655098 0.678600
			CHANNELS 3 Xrotation Yrotation Zrotation
			JOINT RightLeg
			{
				OFFSET -4.081825 -39.591045 13.023800
				CHANNELS 3 Xrotation Yrotation Zrotation
				JOINT RightFoot
				{
					OFFSET 4.081824 -37.707954 -15.979600
					CHANNELS 3 Xrotation Yrotation Zrotation
					JOINT RightToeBase
					{
						OFFSET -5.346400 -15.068900 20.645000
						CHANNELS 3 Xrotation Yrotation Zrotation
						JOINT RightToe_End
						{
							OFFSET -2.754700 0.931300 11.300900
							CHANNELS 3 Xrotation Yrotation Zrotation
							End Site
							{
								OFFSET 0 0 0
							}
						}
					}
				}
			}
		}
	}
	JOINT Spine_virtual
	{
		OFFSET 0.000000 0.000000 0.000000
		CHANNELS 3 Xrotation Yrotation Zrotation
		JOINT Spine
		{
			OFFSET -0.279200 12.230698 -2.892100
			CHANNELS 3 Xrotation Yrotation Zrotation
			JOINT Spine1
			{
				OFFSET -0.232667 10.192268 -1.242267
				CHANNELS 3 Xrotation Yrotation Zrotation
				JOINT Spine1_split
				{
					OFFSET -0.232667 10.192268 -1.242267
					CHANNELS 3 Xrotation Yrotation Zrotation
					JOINT Spine2
					{
						OFFSET -0.232667 10.192268 -1.242267
						CHANNELS 3 Xrotation Yrotation Zrotation
						JOINT Neck_virtual
						{
							OFFSET 0.000000 0.000000 0.000000
							CHANNELS 3 Xrotation Yrotation Zrotation
							JOINT Neck
							{
								OFFSET -0.418800 17.814194 8.416900
								CHANNELS 3 Xrotation Yrotation Zrotation
								JOINT Head
								{
									OFFSET 0.000000 7.031097 3.806800
									CHANNELS 3 Xrotation Yrotation Zrotation
									JOINT HeadTop_End
									{
										OFFSET 0.000000 24.646606 12.978600
										CHANNELS 3 Xrotation Yrotation Zrotation
										End Site
										{
											OFFSET 0 0 0
										}
									}
								}
							}
						}
						JOINT LeftShoulder_virtual
						{
							OFFSET 0.000000 0.000000 0.000000
							CHANNELS 3 Xrotation Yrotation Zrotation
							JOINT LeftShoulder
							{
								OFFSET 8.476499 7.247704 -3.868750
								CHANNELS 3 Xrotation Yrotation Zrotation
								JOINT LeftShoulder_split
								{
									OFFSET 8.476499 7.247704 -3.868750
									CHANNELS 3 Xrotation Yrotation Zrotation
									JOINT LeftArm
									{
										OFFSET 9.308998 -2.777710 0.208600
										CHANNELS 3 Xrotation Yrotation Zrotation
										JOINT LeftForeArm
										{
											OFFSET 29.972298 0.000000 0.000000
											CHANNELS 3 Xrotation Yrotation Zrotation
											JOINT LeftHand
											{
												OFFSET 26.026505 0.000000 0.000000
												CHANNELS 3 Xrotation Yrotation Zrotation
												End Site
												{
													OFFSET 0 0 0
												}
											}
										}
									}
								}
							}
						}
						JOINT RightShoulder_virtual
						{
							OFFSET 0.000000 0.000000 0.000000
							CHANNELS 3 Xrotation Yrotation Zrotation
							JOINT RightShoulder
							{
								OFFSET -7.570500 7.247704 -3.868750
								CHANNELS 3 Xrotation Yrotation Zrotation
								JOINT RightShoulder_split
								{
									OFFSET -7.570500 7.247704 -3.868750
									CHANNELS 3 Xrotation Yrotation Zrotation
									JOINT RightArm
									{
										OFFSET -9.308998 -2.777710 0.208500
										CHANNELS 3 Xrotation Yrotation Zrotation
										JOINT RightForeArm
										{
											OFFSET -29.972300 0.000000 0.000000
											CHANNELS 3 Xrotation Yrotation Zrotation
											JOINT RightHand
											{
												OFFSET -26.026505 0.000000 0.000000
												CHANNELS 3 Xrotation Yrotation Zrotation
												End Site
												{
													OFFSET 0 0 0
												}
											}
										}
									}
								}
							}
						}
					}
				}
			}
		}
	}
}
MOTION
Frames: 4
Frame Time: 0.03333333
6.387273 82.333298 -6.649647 0.000000 0.000000 0.000000 4.512461 8.613338 -1.700349 -31.763440 7.352287 11.919075 48.502792 3.078191 4.106856 -17.453182 5.064940 -9.343262 0.453400 -4.483436 -0.668615 0.000000 0.000000 0.000000 5.061087 9.558851 -1.465843 -21.305001 -7.031635 -15.576410 44.222743 -2.428689 2.547548 -12.803027 -11.376466 17.991937 -1.295820 4.845284 -6.370051 0.000000 0.000000 0.000000 5.235057 14.207225 -2.204459 7.635139 0.164401 -1.913959 7.477710 5.238381 -2.360286 0.251879 -0.816537 0.042829 0.000000 0.000000 0.000000 9.389178 5.959669 -0.563828 -11.728635 19.881359 10.777011 -19.861282 27.526219 6.384855 0.000000 0.000000 0.000000 5.501227 4.360837 -0.822925 -2.660822 2.601644 4.134870 4.508097 0.872694 0.532142 -16.560883 7.734357 -68.457702 5.254168 -43.374508 7.487280 0.000000 0.000000 0.000000 4.264026 3.012805 0.407205 6.527441 -18.460458 -1.529546 -13.960251 0.747399 -9.279953 11.050010 58.575170 48.171859 15.334070 19.982890 -2.629200 0.000000 0.000000 0.000000 
6.811022 83.271774 -6.650982 0.000000 0.000000 0.000000 5.061966 8.364854 -2.068970 -31.998333 6.766739 11.464922 46.662842 4.230376 4.225298 -16.074855 5.646379 -9.171388 0.932786 -4.568074 -0.532188 0.000000 0.000000 0.000000 5.440949 8.948215 -1.912894 -20.490986 -6.661362 -14.642833 40.306176 -0.541472 2.306122 -12.011053 -10.037290 20.638352 -0.333410 5.255434 -9.556242 0.000000 0.000000 0.000000 5.602365 13.715483 -2.541627 7.029503 0.513249 -1.561974 7.647482 5.381364 -2.038090 0.176168 -0.736524 0.041936 0.000000 0.000000 0.000000 9.517682 5.997464 -0.336909 -9.938677 19.013819 9.879426 -20.763527 26.423379 5.009884 0.000000 0.000000 0.000000 5.420283 4.399148 -0.776547 -2.577581 1.609570 4.339118 4.203375 1.362633 0.476711 -16.356956 8.045476 -68.334260 7.085999 -40.795730 8.557366 0.000000 0.000000 0.000000 4.545624 3.302364 0.671795 5.661573 -18.692838 -1.426072 -14.275626 0.848670 -9.249123 8.359427 54.930987 49.189100 13.185241 17.546679 -0.637724 0.000000 0.000000 0.000000 
7.237886 84.214966 -6.775631 0.000000 0.000000 0.000000 5.532703 7.943161 -2.160917 -31.911173 6.221927 10.927586 44.738699 4.916506 4.183420 -14.604196 6.033134 -8.949225 1.139746 -4.670095 -0.356077 0.000000 0.000000 0.000000 5.678376 7.982119 -2.059375 -19.452695 -6.605643 -14.122707 36.152536 0.998039 2.060343 -11.658661 -9.226570 23.213019 1.166070 5.577235 -12.202699 0.000000 0.000000 0.000000 5.914437 13.048051 -2.678297 6.481809 0.807623 -1.300903 7.795687 5.528928 -1.762164 0.155376 -0.713825 0.074644 0.000000 0.000000 0.000000 9.530757 6.073034 -0.175737 -9.053762 18.127180 9.548996 -20.751255 25.900762 3.645820 0.000000 0.000000 0.000000 5.382094 4.459542 -0.755850 -2.557564 0.676261 4.609124 3.977682 1.695616 0.123008 -16.086637 8.754107 -68.312349 8.935295 -38.736854 9.507564 0.000000 0.000000 0.000000 4.835751 3.618581 0.813593 4.816802 -18.557856 -1.391004 -14.292801 0.915348 -8.615519 6.182989 49.892459 50.507480 11.199702 16.546123 0.773922 0.000000 0.000000 0.000000 
7.686887 85.037323 -7.018143 0.000000 0.000000 0.000000 5.780655 7.403219 -2.005654 -31.549436 5.761542 10.385616 42.978812 5.019527 4.040838 -13.256937 6.159747 -9.051095 1.263388 -4.745113 -0.109519 0.000000 0.000000 0.000000 5.748224 7.093574 -1.964535 -18.350521 -6.823344 -13.922633 32.295453 2.007501 1.869378 -12.182444 -9.080621 24.840939 3.974553 5.640366 -13.953649 0.000000 0.000000 0.000000 5.964164 12.249294 -2.645820 6.021457 1.007782 -1.123531 7.919848 5.635855 -1.541252 0.209237 -0.740192 0.132574 0.000000 0.000000 0.000000 9.450363 6.169539 -0.086403 -9.072035 17.273243 9.587128 -19.812702 25.804221 2.336490 0.000000 0.000000 0.000000 5.400967 4.525522 -0.746321 -2.592307 -0.190346 4.861146 3.721598 1.966687 -0.425117 -15.788409 9.684559 -68.409092 10.647646 -37.412313 10.278069 0.000000 0.000000 0.000000 5.131694 3.927722 0.847485 4.054446 -18.019122 -1.225186 -14.012590 1.100251 -7.810990 4.339144 44.137171 52.265304 9.376594 16.471133 1.684390 0.000000 0.000000 0.000000 
